<svg xmlns="http://www.w3.org/2000/svg" width="451.035" height="323.139" viewBox="0 0 451.035 323.139"><path d="M4.286 246.53h26.696c16.098 0 26.695 8.562 26.695 22.62v.198c0 15.39-12.84 23.33-28.008 23.33H12.34v25.166H4.285V246.53zm25.678 38.818c11.822 0 19.566-6.32 19.566-15.688v-.207c0-10.188-7.65-15.483-19.154-15.483H12.338v31.378h17.626zM92.26 246.022h7.545l32.495 71.823h-8.66L115.287 299h-38.82l-8.46 18.845h-8.25l32.502-71.823zm19.868 45.74l-16.2-36.358-16.306 36.36h32.506zM157.104 253.97h-23.936v-7.44h56.023v7.44h-23.935v63.874h-8.15V253.97zM199.787 282.394v-.207c0-19.66 14.778-36.878 36.475-36.878 21.705 0 36.272 17.018 36.272 36.678.103.1.103.1 0 .2 0 19.67-14.77 36.882-36.48 36.882-21.69-.003-36.267-17.014-36.267-36.676zm64.392 0v-.207c0-16.198-11.82-29.44-28.126-29.44-16.295 0-27.908 13.04-27.908 29.24v.2c0 16.206 11.81 29.45 28.115 29.45 16.306-.002 27.92-13.05 27.92-29.243zM289.277 246.53h8.154l25.978 38.918 25.978-38.918h8.148v71.314h-8.047v-57.766l-25.977 38.207h-.41l-25.975-38.106v57.66h-7.85l.002-71.31zM406.708 246.022h7.545l32.498 71.823h-8.665L429.732 299h-38.81l-8.463 18.845h-8.25l32.498-71.823zm19.867 45.74l-16.192-36.358-16.307 36.36h32.5zM228.853 2.07h-14.81l43.092 25.014v98.487c23.12-13.176 38.116-29.918 38.116-65.092.003-35.925-18.62-58.408-66.397-58.408zM167.958 28.57v155.997l42.752 29.563-.12-159.266"/><g><path d="M224.216 73.906l-6.998 3.925.245-17.518s.04-3.91 3.548-5.88c3.513-1.963 3.44 1.97 3.44 1.97l-.234 17.504zM237.96 64.818l-6.996 3.917.25-17.512s.04-3.914 3.556-5.887c3.5-1.956 3.435 1.974 3.435 1.974l-.244 17.508zM251.712 56.573l-6.996 3.904.25-17.51s.036-3.913 3.546-5.884c3.516-1.96 3.44 1.972 3.44 1.972l-.24 17.518z"/></g><g><path d="M223.848 110.013l-6.988 3.914.244-17.513s.036-3.918 3.55-5.877c3.512-1.976 3.44 1.962 3.44 1.962l-.246 17.513zM237.594 100.922l-6.992 3.91.247-17.517s.043-3.91 3.548-5.87c3.518-1.966 3.445 1.96 3.445 1.96l-.25 17.517zM251.34 92.67l-6.98 3.914.24-17.515s.042-3.913 3.548-5.88c3.515-1.97 3.45 1.966 3.45 1.966l-.258 17.515z"/></g><g><path d="M223.478 146.113l-6.988 3.907.253-17.505s.035-3.92 3.55-5.883c3.516-1.962 3.432 1.964 3.432 1.964l-.247 17.517zM237.23 137.022l-6.985 3.91.247-17.516s.035-3.913 3.55-5.87c3.513-1.966 3.442 1.963 3.442 1.963l-.253 17.512zM250.984 128.766l-6.987 3.904.24-17.508s.03-3.912 3.555-5.872c3.51-1.97 3.436 1.968 3.436 1.968l-.244 17.508z"/></g></svg>