<?xml version="1.0" encoding="utf-8"?>
<!-- Generator: Adobe Illustrator 16.0.4, SVG Export Plug-In . SVG Version: 6.00 Build 0)  -->
<!DOCTYPE svg PUBLIC "-//W3C//DTD SVG 1.1//EN" "http://www.w3.org/Graphics/SVG/1.1/DTD/svg11.dtd">
<svg version="1.1" id="Layer_1" xmlns="http://www.w3.org/2000/svg" xmlns:xlink="http://www.w3.org/1999/xlink" x="0px" y="0px"
	 width="451.035px" height="323.139px" viewBox="0 0 451.035 323.139" enable-background="new 0 0 451.035 323.139"
	 xml:space="preserve">
<g>
	<g>
		<g>
			<path d="M4.286,246.53h26.696c16.098,0,26.695,8.562,26.695,22.619v0.199c0,15.391-12.839,23.331-28.008,23.331h-17.33v25.165
				H4.286V246.53z M29.964,285.348c11.822,0,19.566-6.321,19.566-15.688v-0.207c0-10.188-7.651-15.483-19.154-15.483H12.338v31.378
				H29.964L29.964,285.348z"/>
			<path d="M92.26,246.022h7.545l32.495,71.823h-8.661L115.288,299H76.468l-8.459,18.845h-8.252L92.26,246.022z M112.128,291.763
				l-16.2-36.359l-16.306,36.359H112.128z"/>
			<path d="M157.104,253.97h-23.936v-7.44h56.023v7.44h-23.936v63.874h-8.151V253.97L157.104,253.97z"/>
			<path d="M199.787,282.394v-0.207c0-19.66,14.778-36.878,36.475-36.878c21.705,0,36.272,17.019,36.272,36.679
				c0.103,0.101,0.103,0.101,0,0.199c0,19.67-14.771,36.883-36.479,36.883C214.363,319.067,199.787,302.056,199.787,282.394z
				 M264.179,282.394v-0.207c0-16.198-11.819-29.439-28.125-29.439c-16.295,0-27.908,13.039-27.908,29.24v0.199
				c0,16.206,11.811,29.45,28.115,29.45C252.566,311.635,264.179,298.588,264.179,282.394z"/>
			<path d="M289.277,246.53h8.154l25.977,38.918l25.978-38.918h8.148v71.314h-8.047v-57.766l-25.977,38.207h-0.41l-25.975-38.106
				v57.662h-7.85L289.277,246.53L289.277,246.53z"/>
			<path d="M406.708,246.022h7.545l32.498,71.823h-8.666L429.732,299h-38.81l-8.463,18.845h-8.249L406.708,246.022z
				 M426.575,291.763l-16.192-36.359l-16.307,36.359H426.575z"/>
		</g>
		<path d="M228.853,2.07h-14.809l43.091,25.014v98.487c23.119-13.177,38.116-29.919,38.116-65.093
			C295.253,24.553,276.629,2.07,228.853,2.07z"/>
		<polygon points="167.958,28.569 167.958,184.567 210.71,214.13 210.59,54.864 		"/>
		<g>
			<path d="M224.216,73.906l-6.998,3.925l0.245-17.519c0,0,0.041-3.911,3.548-5.881c3.512-1.962,3.44,1.971,3.44,1.971
				L224.216,73.906z"/>
			<path d="M237.961,64.818l-6.997,3.917l0.249-17.512c0,0,0.04-3.914,3.557-5.887c3.5-1.956,3.435,1.974,3.435,1.974
				L237.961,64.818z"/>
			<path d="M251.712,56.573l-6.996,3.904l0.249-17.511c0,0,0.037-3.912,3.547-5.883c3.516-1.959,3.441,1.972,3.441,1.972
				L251.712,56.573z"/>
		</g>
		<g>
			<path d="M223.848,110.013l-6.988,3.914l0.244-17.513c0,0,0.036-3.918,3.55-5.877c3.512-1.976,3.439,1.962,3.439,1.962
				L223.848,110.013z"/>
			<path d="M237.594,100.922l-6.992,3.91l0.247-17.517c0,0,0.044-3.909,3.549-5.871c3.518-1.965,3.445,1.962,3.445,1.962
				L237.594,100.922z"/>
			<path d="M251.34,92.671l-6.979,3.913l0.239-17.515c0,0,0.042-3.912,3.548-5.88c3.515-1.968,3.45,1.967,3.45,1.967L251.34,92.671z
				"/>
		</g>
		<g>
			<path d="M223.478,146.113l-6.988,3.907l0.253-17.505c0,0,0.035-3.919,3.55-5.883c3.516-1.962,3.432,1.964,3.432,1.964
				L223.478,146.113z"/>
			<path d="M237.231,137.022l-6.986,3.909l0.247-17.515c0,0,0.035-3.913,3.549-5.871c3.514-1.965,3.443,1.964,3.443,1.964
				L237.231,137.022z"/>
			<path d="M250.984,128.766l-6.987,3.904l0.239-17.508c0,0,0.031-3.912,3.556-5.872c3.51-1.969,3.436,1.968,3.436,1.968
				L250.984,128.766z"/>
		</g>
	</g>
</g>
</svg>
