<?xml version="1.0" encoding="utf-8"?>
<!-- Generator: Adobe Illustrator 16.0.4, SVG Export Plug-In . SVG Version: 6.00 Build 0)  -->
<!DOCTYPE svg PUBLIC "-//W3C//DTD SVG 1.1//EN" "http://www.w3.org/Graphics/SVG/1.1/DTD/svg11.dtd">
<svg version="1.1" id="Layer_1" xmlns="http://www.w3.org/2000/svg" xmlns:xlink="http://www.w3.org/1999/xlink" x="0px" y="0px"
	 width="480px" height="346.216px" viewBox="0 0 480 346.216" enable-background="new 0 0 480 346.216" xml:space="preserve">
<g>
	<g>
		<g>
			<path d="M2.474,265.354h28.679c17.292,0,28.676,9.193,28.676,24.296v0.214c0,16.535-13.793,25.065-30.088,25.065H11.124v27.033
				h-8.65V265.354z M30.057,307.053c12.7,0,21.019-6.79,21.019-16.852v-0.223c0-10.943-8.219-16.633-20.576-16.633H11.124v33.707
				H30.057z"/>
			<path d="M96.978,264.807h8.105l34.907,77.155h-9.303l-8.971-20.244H80.015l-9.087,20.244h-8.864L96.978,264.807z
				 M118.321,313.944l-17.401-39.059l-17.517,39.059H118.321z"/>
			<path d="M166.636,273.346h-25.713v-7.992h60.182v7.992h-25.713v68.616h-8.755V273.346z"/>
			<path d="M212.486,303.878v-0.223c0-21.121,15.876-39.615,39.184-39.615c23.315,0,38.965,18.281,38.965,39.401
				c0.107,0.107,0.107,0.107,0,0.214c0,21.13-15.867,39.62-39.188,39.62C228.145,343.275,212.486,324.999,212.486,303.878z
				 M281.659,303.878v-0.223c0-17.398-12.697-31.623-30.212-31.623c-17.506,0-29.981,14.006-29.981,31.409v0.214
				c0,17.408,12.687,31.638,30.204,31.638C269.185,335.293,281.659,321.277,281.659,303.878z"/>
			<path d="M308.622,265.354h8.762l27.906,41.806l27.905-41.806h8.754v76.608h-8.646v-62.054l-27.906,41.044h-0.44l-27.902-40.933
				v61.942h-8.432V265.354z"/>
			<path d="M434.77,264.807h8.107l34.909,77.155h-9.31l-8.971-20.244h-41.69l-9.092,20.244h-8.859L434.77,264.807z M456.113,313.944
				l-17.395-39.059l-17.52,39.059H456.113z"/>
		</g>
		<path d="M243.712,2.743h-15.908l46.287,26.871v105.799c24.839-14.156,40.951-32.14,40.951-69.926
			C315.042,26.896,295.033,2.743,243.712,2.743z"/>
		<polygon points="178.296,31.212 178.296,198.789 224.222,230.547 224.093,59.459 		"/>
		<g>
			<path d="M238.729,79.915l-7.518,4.216l0.263-18.821c0,0,0.042-4.201,3.811-6.318c3.773-2.108,3.695,2.117,3.695,2.117
				L238.729,79.915z"/>
			<path d="M253.495,70.151l-7.516,4.207l0.268-18.811c0,0,0.044-4.205,3.82-6.324c3.762-2.102,3.69,2.119,3.69,2.119
				L253.495,70.151z"/>
			<path d="M268.268,61.296l-7.516,4.191l0.268-18.808c0,0,0.04-4.203,3.811-6.32c3.775-2.104,3.695,2.117,3.695,2.117
				L268.268,61.296z"/>
		</g>
		<g>
			<path d="M238.333,118.702l-7.506,4.205l0.263-18.813c0,0,0.038-4.209,3.813-6.313c3.773-2.124,3.695,2.108,3.695,2.108
				L238.333,118.702z"/>
			<path d="M253.099,108.936l-7.511,4.201l0.268-18.817c0,0,0.044-4.201,3.811-6.309c3.78-2.11,3.7,2.108,3.7,2.108L253.099,108.936
				z"/>
			<path d="M267.867,100.072l-7.498,4.203l0.258-18.814c0,0,0.045-4.203,3.812-6.318c3.775-2.112,3.704,2.115,3.704,2.115
				L267.867,100.072z"/>
		</g>
		<g>
			<path d="M237.937,157.48l-7.506,4.198l0.271-18.806c0,0,0.036-4.209,3.813-6.32c3.775-2.108,3.687,2.11,3.687,2.11
				L237.937,157.48z"/>
			<path d="M252.712,147.717l-7.507,4.198l0.268-18.815c0,0,0.035-4.205,3.811-6.309c3.775-2.11,3.7,2.11,3.7,2.11L252.712,147.717z
				"/>
			<path d="M267.483,138.848l-7.506,4.194l0.258-18.809c0,0,0.036-4.203,3.82-6.309c3.771-2.115,3.69,2.115,3.69,2.115
				L267.483,138.848z"/>
		</g>
	</g>
</g>
</svg>
